<?xml version="1.0" encoding="UTF-8"?><svg id="a" xmlns="http://www.w3.org/2000/svg" width="1024" height="689.59" viewBox="0 0 1024 689.59"><polygon points="219.1 335.18 321.35 301.36 384.38 389 384.38 281.37 486.63 247.54 384.38 214.49 384.38 106.86 321.35 193.73 219.1 160.67 282.14 247.54 219.1 335.18" fill="#fff"/><polygon points="385.92 0 611.17 247.54 385.92 495.86 578.88 495.86 804.13 247.54 578.88 0 385.92 0" fill="#fff"/><path d="M63,598.87c8.46,0,17.68,4.61,23.83,11.53l2.31,2.31,27.67-19.22-2.3-3.08c-12.26-15.41-30.71-23.83-50.7-23.83-35.37,0-63.81,27.68-63.81,60.74s28.44,60.73,63.81,60.73c20,0,38.44-8.46,50.74-23.83l2.3-3.08-27.67-19.22-2.31,2.31c-6.15,6.92-14.61,11.53-23.06,11.53-16.15,0-30-13.84-30-29.21-.75-13.84,13.08-27.68,29.19-27.68Z" fill="#fff"/><polygon points="358.25 635.77 308.28 571.2 276.76 571.2 276.76 685.74 307.51 685.74 307.51 621.16 353.63 685.74 389 685.74 389 571.2 358.25 571.2 358.25 635.77" fill="#fff"/><path d="M476.64,652.68h0c0,.77-1.54,.77-1.54,.77-.77,0-1.54,0-1.54-1.53l-25.37-81.49h-35.36l37.67,115.31h50l37.67-115.31h-35.4l-26.13,82.25Z" fill="#fff"/><path d="M780.3,605c-1.54-19.22-18.45-33.82-37.67-33.82h-58.43v115.33h30.8v-41.51h13.84c1.46-.19,2.92,.39,3.85,1.53l20,40h34.6l-23.83-46.89c11.12-7.94,17.46-20.98,16.84-34.64Zm-39.21,8.46h-26.9v-12.3h26.9c3.85,0,6.92,2.3,6.92,6.15s-3.07,6.17-6.92,6.17v-.02Z" fill="#fff"/><polygon points="1024 601.18 1024 571.2 931.75 571.2 931.75 685.74 1024 685.74 1024 654.99 962.5 654.99 962.5 641.15 1017.85 641.15 1017.85 613.48 962.5 613.48 962.5 601.18 1024 601.18" fill="#fff"/><path d="M862.56,614.25c-16.15-3.85-20.76-6.15-20.76-11.54h0c0-4.61,3.08-7.68,11.53-7.68,10.77,0,19.22,3.07,30.75,10l18.45-21.52c-13.06-10-28.44-16.15-48.43-16.15-28.44,0-45.36,16.15-45.36,37.67h0c0,24.6,20,31.52,45.36,37.67,16.15,3.84,20.76,6.15,20.76,11.53h0c0,5.38-5.38,8.46-14.61,8.46-14.41,.06-28.35-5.13-39.2-14.61l-18.46,21.52c14.61,13.07,35.37,20,56.89,20,28.45,0,49.2-14.61,49.2-38.44h0c-1.53-22.31-19.21-30.76-46.12-36.91Z" fill="#fff"/><path d="M190.65,567.35c-34.59,0-62.27,27.68-62.27,60.73s27.68,60.74,62.27,60.74,62.27-27.68,62.27-60.74-27.67-60.73-62.27-60.73Zm0,90.72c-16.14,0-29.22-13.08-29.22-29.22s13.08-29.22,29.22-29.22,29.22,13.08,29.22,29.22h0c.01,16.13-13.05,29.21-29.18,29.22h-.04Z" fill="#fff"/><polygon points="558.89 685.74 651.15 685.74 651.15 654.99 589.65 654.99 589.65 641.15 645 641.15 645 613.48 589.65 613.48 589.65 601.18 651.15 601.18 651.15 571.2 558.89 571.2 558.89 685.74" fill="#fff"/></svg>