<svg width="113" height="29" viewBox="0 0 113 29" fill="none" xmlns="http://www.w3.org/2000/svg">
<path d="M18.46 10.39C18.36 10.55 18.2533 10.67 18.14 10.75C18.0333 10.83 17.8933 10.87 17.72 10.87C17.5667 10.87 17.4 10.8233 17.22 10.73C17.0467 10.63 16.8467 10.52 16.62 10.4C16.4 10.28 16.1467 10.1733 15.86 10.08C15.5733 9.98 15.2467 9.93 14.88 9.93C14.2467 9.93 13.7733 10.0667 13.46 10.34C13.1533 10.6067 13 10.97 13 11.43C13 11.7233 13.0933 11.9667 13.28 12.16C13.4667 12.3533 13.71 12.52 14.01 12.66C14.3167 12.8 14.6633 12.93 15.05 13.05C15.4433 13.1633 15.8433 13.2933 16.25 13.44C16.6567 13.58 17.0533 13.7467 17.44 13.94C17.8333 14.1333 18.18 14.38 18.48 14.68C18.7867 14.98 19.0333 15.3467 19.22 15.78C19.4067 16.2067 19.5 16.7233 19.5 17.33C19.5 18.0033 19.3833 18.6333 19.15 19.22C18.9167 19.8067 18.5767 20.32 18.13 20.76C17.69 21.1933 17.1433 21.5367 16.49 21.79C15.8433 22.0367 15.1067 22.16 14.28 22.16C13.8267 22.16 13.3633 22.1133 12.89 22.02C12.4233 21.9267 11.97 21.7967 11.53 21.63C11.09 21.4567 10.6767 21.2533 10.29 21.02C9.90333 20.7867 9.56667 20.5267 9.28 20.24L10.28 18.66C10.36 18.5467 10.4633 18.4533 10.59 18.38C10.7233 18.3 10.8667 18.26 11.02 18.26C11.22 18.26 11.42 18.3233 11.62 18.45C11.8267 18.5767 12.0567 18.7167 12.31 18.87C12.57 19.0233 12.8667 19.1633 13.2 19.29C13.5333 19.4167 13.9267 19.48 14.38 19.48C14.9933 19.48 15.47 19.3467 15.81 19.08C16.15 18.8067 16.32 18.3767 16.32 17.79C16.32 17.45 16.2267 17.1733 16.04 16.96C15.8533 16.7467 15.6067 16.57 15.3 16.43C15 16.29 14.6567 16.1667 14.27 16.06C13.8833 15.9533 13.4867 15.8367 13.08 15.71C12.6733 15.5767 12.2767 15.4167 11.89 15.23C11.5033 15.0367 11.1567 14.7867 10.85 14.48C10.55 14.1667 10.3067 13.78 10.12 13.32C9.93333 12.8533 9.84 12.28 9.84 11.6C9.84 11.0533 9.95 10.52 10.17 10C10.39 9.48 10.7133 9.01667 11.14 8.61C11.5667 8.20333 12.09 7.88 12.71 7.64C13.33 7.39333 14.04 7.27 14.84 7.27C15.2867 7.27 15.72 7.30667 16.14 7.38C16.5667 7.44667 16.97 7.55 17.35 7.69C17.73 7.82333 18.0833 7.98667 18.41 8.18C18.7433 8.36667 19.04 8.58 19.3 8.82L18.46 10.39ZM25.9042 11.47C26.6909 11.47 27.4076 11.5933 28.0542 11.84C28.7009 12.0867 29.2542 12.44 29.7142 12.9C30.1809 13.36 30.5409 13.92 30.7942 14.58C31.0542 15.2333 31.1842 15.97 31.1842 16.79C31.1842 17.6167 31.0542 18.3633 30.7942 19.03C30.5409 19.69 30.1809 20.2533 29.7142 20.72C29.2542 21.18 28.7009 21.5367 28.0542 21.79C27.4076 22.0367 26.6909 22.16 25.9042 22.16C25.1109 22.16 24.3876 22.0367 23.7342 21.79C23.0876 21.5367 22.5276 21.18 22.0542 20.72C21.5876 20.2533 21.2242 19.69 20.9642 19.03C20.7109 18.3633 20.5842 17.6167 20.5842 16.79C20.5842 15.97 20.7109 15.2333 20.9642 14.58C21.2242 13.92 21.5876 13.36 22.0542 12.9C22.5276 12.44 23.0876 12.0867 23.7342 11.84C24.3876 11.5933 25.1109 11.47 25.9042 11.47ZM25.9042 19.86C26.6176 19.86 27.1409 19.61 27.4742 19.11C27.8142 18.6033 27.9842 17.8367 27.9842 16.81C27.9842 15.7833 27.8142 15.02 27.4742 14.52C27.1409 14.02 26.6176 13.77 25.9042 13.77C25.1709 13.77 24.6342 14.02 24.2942 14.52C23.9542 15.02 23.7842 15.7833 23.7842 16.81C23.7842 17.8367 23.9542 18.6033 24.2942 19.11C24.6342 19.61 25.1709 19.86 25.9042 19.86ZM35.8453 7.03V22H32.7453V7.03H35.8453ZM44.3906 15.57C44.3906 15.3233 44.3573 15.0833 44.2906 14.85C44.2306 14.6167 44.1273 14.41 43.9806 14.23C43.8406 14.0433 43.654 13.8933 43.4206 13.78C43.1873 13.6667 42.904 13.61 42.5706 13.61C41.984 13.61 41.524 13.78 41.1906 14.12C40.8573 14.4533 40.6373 14.9367 40.5306 15.57H44.3906ZM40.4906 17.37C40.5906 18.2367 40.854 18.8667 41.2806 19.26C41.7073 19.6467 42.2573 19.84 42.9306 19.84C43.2906 19.84 43.6006 19.7967 43.8606 19.71C44.1206 19.6233 44.3506 19.5267 44.5506 19.42C44.7573 19.3133 44.944 19.2167 45.1106 19.13C45.284 19.0433 45.464 19 45.6506 19C45.8973 19 46.084 19.09 46.2106 19.27L47.1106 20.38C46.7906 20.7467 46.444 21.0467 46.0706 21.28C45.704 21.5067 45.324 21.6867 44.9306 21.82C44.544 21.9467 44.154 22.0333 43.7606 22.08C43.374 22.1333 43.004 22.16 42.6506 22.16C41.924 22.16 41.2406 22.0433 40.6006 21.81C39.9673 21.57 39.4106 21.2167 38.9306 20.75C38.4573 20.2833 38.0806 19.7033 37.8006 19.01C37.5273 18.3167 37.3906 17.51 37.3906 16.59C37.3906 15.8967 37.5073 15.24 37.7406 14.62C37.9806 14 38.3206 13.4567 38.7606 12.99C39.2073 12.5233 39.744 12.1533 40.3706 11.88C41.004 11.6067 41.7173 11.47 42.5106 11.47C43.1973 11.47 43.824 11.5767 44.3906 11.79C44.964 12.0033 45.454 12.3133 45.8606 12.72C46.274 13.1267 46.594 13.6267 46.8206 14.22C47.054 14.8067 47.1706 15.4733 47.1706 16.22C47.1706 16.4533 47.1606 16.6433 47.1406 16.79C47.1206 16.9367 47.084 17.0533 47.0306 17.14C46.9773 17.2267 46.904 17.2867 46.8106 17.32C46.724 17.3533 46.6106 17.37 46.4706 17.37H40.4906ZM56.9952 10.39C56.8952 10.55 56.7885 10.67 56.6752 10.75C56.5685 10.83 56.4285 10.87 56.2552 10.87C56.1018 10.87 55.9352 10.8233 55.7552 10.73C55.5818 10.63 55.3818 10.52 55.1552 10.4C54.9352 10.28 54.6818 10.1733 54.3952 10.08C54.1085 9.98 53.7818 9.93 53.4152 9.93C52.7818 9.93 52.3085 10.0667 51.9952 10.34C51.6885 10.6067 51.5352 10.97 51.5352 11.43C51.5352 11.7233 51.6285 11.9667 51.8152 12.16C52.0018 12.3533 52.2452 12.52 52.5452 12.66C52.8518 12.8 53.1985 12.93 53.5852 13.05C53.9785 13.1633 54.3785 13.2933 54.7852 13.44C55.1918 13.58 55.5885 13.7467 55.9752 13.94C56.3685 14.1333 56.7152 14.38 57.0152 14.68C57.3218 14.98 57.5685 15.3467 57.7552 15.78C57.9418 16.2067 58.0352 16.7233 58.0352 17.33C58.0352 18.0033 57.9185 18.6333 57.6852 19.22C57.4518 19.8067 57.1118 20.32 56.6652 20.76C56.2252 21.1933 55.6785 21.5367 55.0252 21.79C54.3785 22.0367 53.6418 22.16 52.8152 22.16C52.3618 22.16 51.8985 22.1133 51.4252 22.02C50.9585 21.9267 50.5052 21.7967 50.0652 21.63C49.6252 21.4567 49.2118 21.2533 48.8252 21.02C48.4385 20.7867 48.1018 20.5267 47.8152 20.24L48.8152 18.66C48.8952 18.5467 48.9985 18.4533 49.1252 18.38C49.2585 18.3 49.4018 18.26 49.5552 18.26C49.7552 18.26 49.9552 18.3233 50.1552 18.45C50.3618 18.5767 50.5918 18.7167 50.8452 18.87C51.1052 19.0233 51.4018 19.1633 51.7352 19.29C52.0685 19.4167 52.4618 19.48 52.9152 19.48C53.5285 19.48 54.0052 19.3467 54.3452 19.08C54.6852 18.8067 54.8552 18.3767 54.8552 17.79C54.8552 17.45 54.7618 17.1733 54.5752 16.96C54.3885 16.7467 54.1418 16.57 53.8352 16.43C53.5352 16.29 53.1918 16.1667 52.8052 16.06C52.4185 15.9533 52.0218 15.8367 51.6152 15.71C51.2085 15.5767 50.8118 15.4167 50.4252 15.23C50.0385 15.0367 49.6918 14.7867 49.3852 14.48C49.0852 14.1667 48.8418 13.78 48.6552 13.32C48.4685 12.8533 48.3752 12.28 48.3752 11.6C48.3752 11.0533 48.4852 10.52 48.7052 10C48.9252 9.48 49.2485 9.01667 49.6752 8.61C50.1018 8.20333 50.6252 7.88 51.2452 7.64C51.8652 7.39333 52.5752 7.27 53.3752 7.27C53.8218 7.27 54.2552 7.30667 54.6752 7.38C55.1018 7.44667 55.5052 7.55 55.8852 7.69C56.2652 7.82333 56.6185 7.98667 56.9452 8.18C57.2785 8.36667 57.5752 8.58 57.8352 8.82L56.9952 10.39ZM62.9202 22.16C62.4268 22.16 61.9902 22.09 61.6102 21.95C61.2368 21.8033 60.9202 21.6 60.6602 21.34C60.4068 21.0733 60.2135 20.7533 60.0802 20.38C59.9468 20.0067 59.8802 19.59 59.8802 19.13V13.77H59.0002C58.8402 13.77 58.7035 13.72 58.5902 13.62C58.4768 13.5133 58.4202 13.36 58.4202 13.16V11.95L60.0702 11.63L60.6802 9.1C60.7602 8.78 60.9868 8.62 61.3602 8.62H62.9802V11.65H65.5502V13.77H62.9802V18.92C62.9802 19.16 63.0368 19.36 63.1502 19.52C63.2702 19.6733 63.4402 19.75 63.6602 19.75C63.7735 19.75 63.8668 19.74 63.9402 19.72C64.0202 19.6933 64.0868 19.6667 64.1402 19.64C64.2002 19.6067 64.2535 19.58 64.3002 19.56C64.3535 19.5333 64.4135 19.52 64.4802 19.52C64.5735 19.52 64.6468 19.5433 64.7002 19.59C64.7602 19.63 64.8202 19.6967 64.8802 19.79L65.8202 21.26C65.4202 21.56 64.9702 21.7867 64.4702 21.94C63.9702 22.0867 63.4535 22.16 62.9202 22.16ZM76.7359 11.63L71.1959 24.69C71.1026 24.8967 70.9893 25.0467 70.8559 25.14C70.7226 25.24 70.5093 25.29 70.2159 25.29H67.8959L69.8959 21.09L65.7559 11.63H68.4959C68.7359 11.63 68.9193 11.6833 69.0459 11.79C69.1793 11.8967 69.2759 12.0233 69.3359 12.17L71.0359 16.64C71.1959 17.0467 71.3259 17.4633 71.4259 17.89C71.4993 17.6767 71.5726 17.4633 71.6459 17.25C71.7193 17.0367 71.7959 16.8267 71.8759 16.62L73.4159 12.17C73.4759 12.0167 73.5826 11.89 73.7359 11.79C73.8893 11.6833 74.0559 11.63 74.2359 11.63H76.7359ZM80.7477 7.03V22H77.6477V7.03H80.7477ZM89.293 15.57C89.293 15.3233 89.2596 15.0833 89.193 14.85C89.133 14.6167 89.0296 14.41 88.883 14.23C88.743 14.0433 88.5563 13.8933 88.323 13.78C88.0896 13.6667 87.8063 13.61 87.473 13.61C86.8863 13.61 86.4263 13.78 86.093 14.12C85.7596 14.4533 85.5396 14.9367 85.433 15.57H89.293ZM85.393 17.37C85.493 18.2367 85.7563 18.8667 86.183 19.26C86.6096 19.6467 87.1596 19.84 87.833 19.84C88.193 19.84 88.503 19.7967 88.763 19.71C89.023 19.6233 89.253 19.5267 89.453 19.42C89.6596 19.3133 89.8463 19.2167 90.013 19.13C90.1863 19.0433 90.3663 19 90.553 19C90.7996 19 90.9863 19.09 91.113 19.27L92.013 20.38C91.693 20.7467 91.3463 21.0467 90.973 21.28C90.6063 21.5067 90.2263 21.6867 89.833 21.82C89.4463 21.9467 89.0563 22.0333 88.663 22.08C88.2763 22.1333 87.9063 22.16 87.553 22.16C86.8263 22.16 86.143 22.0433 85.503 21.81C84.8696 21.57 84.313 21.2167 83.833 20.75C83.3596 20.2833 82.983 19.7033 82.703 19.01C82.4296 18.3167 82.293 17.51 82.293 16.59C82.293 15.8967 82.4096 15.24 82.643 14.62C82.883 14 83.223 13.4567 83.663 12.99C84.1096 12.5233 84.6463 12.1533 85.273 11.88C85.9063 11.6067 86.6196 11.47 87.413 11.47C88.0996 11.47 88.7263 11.5767 89.293 11.79C89.8663 12.0033 90.3563 12.3133 90.763 12.72C91.1763 13.1267 91.4963 13.6267 91.723 14.22C91.9563 14.8067 92.073 15.4733 92.073 16.22C92.073 16.4533 92.063 16.6433 92.043 16.79C92.023 16.9367 91.9863 17.0533 91.933 17.14C91.8796 17.2267 91.8063 17.2867 91.713 17.32C91.6263 17.3533 91.513 17.37 91.373 17.37H85.393Z" fill="white"/>
<path d="M95 13.2832L98.4398 12.2044L100.56 15V11.5667L104 10.4876L100.56 9.4333V6L98.4398 8.77107L95 7.71649L97.1207 10.4876L95 13.2832Z" fill="white"/>
</svg>
